<mxfile host="app.diagrams.net" modified="2023-12-01T02:25:57.732Z" agent="Mozilla/5.0 (Windows NT 10.0; Win64; x64) AppleWebKit/537.36 (KHTML, like Gecko) Chrome/119.0.0.0 Safari/537.36" etag="wPma-0xM-czAN5vorJUF" version="22.1.5" type="github">
  <diagram name="Page-1" id="TFC7RiBIANS_7f7X3hHn">
    <mxGraphModel dx="1509" dy="872" grid="1" gridSize="10" guides="1" tooltips="1" connect="1" arrows="1" fold="1" page="1" pageScale="1" pageWidth="850" pageHeight="1100" math="0" shadow="0">
      <root>
        <mxCell id="0" />
        <mxCell id="1" parent="0" />
        <mxCell id="6m4tc3KTcgK31adG3Cmp-34" style="edgeStyle=orthogonalEdgeStyle;rounded=0;orthogonalLoop=1;jettySize=auto;html=1;entryX=0;entryY=0.5;entryDx=0;entryDy=0;dashed=1;startArrow=classic;startFill=1;" edge="1" parent="1" source="6m4tc3KTcgK31adG3Cmp-1" target="6m4tc3KTcgK31adG3Cmp-25">
          <mxGeometry relative="1" as="geometry" />
        </mxCell>
        <mxCell id="6m4tc3KTcgK31adG3Cmp-1" value="ServerMain" style="rounded=1;whiteSpace=wrap;html=1;" vertex="1" parent="1">
          <mxGeometry x="130" y="420.01" width="122.5" height="60" as="geometry" />
        </mxCell>
        <mxCell id="6m4tc3KTcgK31adG3Cmp-37" style="edgeStyle=orthogonalEdgeStyle;rounded=0;orthogonalLoop=1;jettySize=auto;html=1;entryX=0.5;entryY=0;entryDx=0;entryDy=0;startArrow=none;startFill=0;endArrow=none;endFill=0;dashed=1;" edge="1" parent="1" source="6m4tc3KTcgK31adG3Cmp-3" target="6m4tc3KTcgK31adG3Cmp-1">
          <mxGeometry relative="1" as="geometry" />
        </mxCell>
        <mxCell id="6m4tc3KTcgK31adG3Cmp-3" value="Interface" style="rounded=1;whiteSpace=wrap;html=1;" vertex="1" parent="1">
          <mxGeometry x="130" y="370.01" width="122.5" height="30" as="geometry" />
        </mxCell>
        <mxCell id="6m4tc3KTcgK31adG3Cmp-5" value="DB" style="shape=cylinder3;whiteSpace=wrap;html=1;boundedLbl=1;backgroundOutline=1;size=15;" vertex="1" parent="1">
          <mxGeometry x="385" y="410.01" width="60" height="80" as="geometry" />
        </mxCell>
        <mxCell id="6m4tc3KTcgK31adG3Cmp-6" value="File &lt;br&gt;Server" style="shape=cylinder3;whiteSpace=wrap;html=1;boundedLbl=1;backgroundOutline=1;size=15;" vertex="1" parent="1">
          <mxGeometry x="465" y="410.01" width="60" height="80" as="geometry" />
        </mxCell>
        <mxCell id="6m4tc3KTcgK31adG3Cmp-7" value="Processor #1" style="shape=hexagon;perimeter=hexagonPerimeter2;whiteSpace=wrap;html=1;fixedSize=1;" vertex="1" parent="1">
          <mxGeometry x="210" y="550.01" width="110" height="70" as="geometry" />
        </mxCell>
        <mxCell id="6m4tc3KTcgK31adG3Cmp-8" value="Processor #2" style="shape=hexagon;perimeter=hexagonPerimeter2;whiteSpace=wrap;html=1;fixedSize=1;" vertex="1" parent="1">
          <mxGeometry x="210" y="640.01" width="110" height="70" as="geometry" />
        </mxCell>
        <mxCell id="6m4tc3KTcgK31adG3Cmp-9" value="" style="shape=cylinder3;whiteSpace=wrap;html=1;boundedLbl=1;backgroundOutline=1;size=5;" vertex="1" parent="1">
          <mxGeometry x="150" y="530.01" width="20" height="180" as="geometry" />
        </mxCell>
        <mxCell id="6m4tc3KTcgK31adG3Cmp-11" value="IG" style="ellipse;whiteSpace=wrap;html=1;aspect=fixed;" vertex="1" parent="1">
          <mxGeometry x="330" y="243.13" width="50" height="50" as="geometry" />
        </mxCell>
        <mxCell id="6m4tc3KTcgK31adG3Cmp-12" value="FB" style="ellipse;whiteSpace=wrap;html=1;aspect=fixed;" vertex="1" parent="1">
          <mxGeometry x="400" y="243.13" width="50" height="50" as="geometry" />
        </mxCell>
        <mxCell id="6m4tc3KTcgK31adG3Cmp-13" value="etc." style="ellipse;whiteSpace=wrap;html=1;aspect=fixed;dashed=1;" vertex="1" parent="1">
          <mxGeometry x="470" y="243.13" width="50" height="50" as="geometry" />
        </mxCell>
        <mxCell id="6m4tc3KTcgK31adG3Cmp-14" value="&lt;i&gt;more as needed&lt;/i&gt;" style="shape=hexagon;perimeter=hexagonPerimeter2;whiteSpace=wrap;html=1;fixedSize=1;dashed=1;dashPattern=1 2;fillStyle=cross-hatch;fillColor=none;" vertex="1" parent="1">
          <mxGeometry x="210" y="730.01" width="110" height="70" as="geometry" />
        </mxCell>
        <mxCell id="6m4tc3KTcgK31adG3Cmp-16" style="edgeStyle=orthogonalEdgeStyle;orthogonalLoop=1;jettySize=auto;html=1;exitX=0.5;exitY=0;exitDx=0;exitDy=0;exitPerimeter=0;rounded=0;startArrow=classic;startFill=1;strokeWidth=1;dashed=1;" edge="1" parent="1" source="6m4tc3KTcgK31adG3Cmp-9" target="6m4tc3KTcgK31adG3Cmp-1">
          <mxGeometry relative="1" as="geometry" />
        </mxCell>
        <mxCell id="6m4tc3KTcgK31adG3Cmp-18" style="edgeStyle=orthogonalEdgeStyle;rounded=0;orthogonalLoop=1;jettySize=auto;html=1;entryX=1;entryY=0.306;entryDx=0;entryDy=0;entryPerimeter=0;startArrow=classic;startFill=1;dashed=1;" edge="1" parent="1" source="6m4tc3KTcgK31adG3Cmp-7" target="6m4tc3KTcgK31adG3Cmp-9">
          <mxGeometry relative="1" as="geometry" />
        </mxCell>
        <mxCell id="6m4tc3KTcgK31adG3Cmp-20" style="edgeStyle=orthogonalEdgeStyle;rounded=0;orthogonalLoop=1;jettySize=auto;html=1;entryX=0.95;entryY=0.806;entryDx=0;entryDy=0;entryPerimeter=0;startArrow=classic;startFill=1;dashed=1;" edge="1" parent="1" source="6m4tc3KTcgK31adG3Cmp-8" target="6m4tc3KTcgK31adG3Cmp-9">
          <mxGeometry relative="1" as="geometry" />
        </mxCell>
        <mxCell id="6m4tc3KTcgK31adG3Cmp-23" value="Message &lt;br&gt;Queues" style="text;html=1;align=center;verticalAlign=middle;resizable=0;points=[];autosize=1;strokeColor=none;fillColor=none;" vertex="1" parent="1">
          <mxGeometry x="80" y="580.01" width="70" height="40" as="geometry" />
        </mxCell>
        <mxCell id="6m4tc3KTcgK31adG3Cmp-25" value="" style="rounded=1;whiteSpace=wrap;html=1;dashed=1;fillColor=none;strokeWidth=2;" vertex="1" parent="1">
          <mxGeometry x="375" y="400.01" width="160" height="100" as="geometry" />
        </mxCell>
        <mxCell id="6m4tc3KTcgK31adG3Cmp-30" style="edgeStyle=orthogonalEdgeStyle;rounded=0;orthogonalLoop=1;jettySize=auto;html=1;entryX=0.425;entryY=1.03;entryDx=0;entryDy=0;entryPerimeter=0;dashed=1;" edge="1" parent="1" source="6m4tc3KTcgK31adG3Cmp-7" target="6m4tc3KTcgK31adG3Cmp-25">
          <mxGeometry relative="1" as="geometry" />
        </mxCell>
        <mxCell id="6m4tc3KTcgK31adG3Cmp-32" style="edgeStyle=orthogonalEdgeStyle;rounded=0;orthogonalLoop=1;jettySize=auto;html=1;entryX=0.544;entryY=1.03;entryDx=0;entryDy=0;entryPerimeter=0;dashed=1;" edge="1" parent="1" source="6m4tc3KTcgK31adG3Cmp-8" target="6m4tc3KTcgK31adG3Cmp-25">
          <mxGeometry relative="1" as="geometry" />
        </mxCell>
        <mxCell id="6m4tc3KTcgK31adG3Cmp-33" value="" style="rounded=1;whiteSpace=wrap;html=1;dashed=1;fillColor=none;strokeWidth=2;" vertex="1" parent="1">
          <mxGeometry x="320" y="230" width="210" height="76.25" as="geometry" />
        </mxCell>
        <mxCell id="6m4tc3KTcgK31adG3Cmp-35" style="edgeStyle=orthogonalEdgeStyle;rounded=0;orthogonalLoop=1;jettySize=auto;html=1;startArrow=classic;startFill=1;dashed=1;" edge="1" parent="1" source="6m4tc3KTcgK31adG3Cmp-1" target="6m4tc3KTcgK31adG3Cmp-33">
          <mxGeometry relative="1" as="geometry">
            <mxPoint x="340" y="340.01" as="targetPoint" />
            <Array as="points">
              <mxPoint x="340" y="440.01" />
            </Array>
          </mxGeometry>
        </mxCell>
        <mxCell id="6m4tc3KTcgK31adG3Cmp-41" value="" style="rounded=1;whiteSpace=wrap;html=1;fillColor=none;dashed=1;dashPattern=1 4;strokeWidth=1;" vertex="1" parent="1">
          <mxGeometry x="472.5" y="603.14" width="280" height="190" as="geometry" />
        </mxCell>
        <mxCell id="6m4tc3KTcgK31adG3Cmp-42" value="" style="shape=hexagon;perimeter=hexagonPerimeter2;whiteSpace=wrap;html=1;fixedSize=1;size=40;" vertex="1" parent="1">
          <mxGeometry x="485" y="620.01" width="255" height="156.25" as="geometry" />
        </mxCell>
        <mxCell id="6m4tc3KTcgK31adG3Cmp-43" value="ControlNet" style="rounded=1;whiteSpace=wrap;html=1;" vertex="1" parent="1">
          <mxGeometry x="530" y="670.01" width="70" height="35" as="geometry" />
        </mxCell>
        <mxCell id="6m4tc3KTcgK31adG3Cmp-44" value="ChatGPT" style="rounded=1;whiteSpace=wrap;html=1;" vertex="1" parent="1">
          <mxGeometry x="620" y="670.01" width="70" height="35" as="geometry" />
        </mxCell>
        <mxCell id="6m4tc3KTcgK31adG3Cmp-45" value="SEO APIs" style="rounded=1;whiteSpace=wrap;html=1;" vertex="1" parent="1">
          <mxGeometry x="530" y="720.01" width="70" height="35" as="geometry" />
        </mxCell>
        <mxCell id="6m4tc3KTcgK31adG3Cmp-46" value="etc." style="rounded=1;whiteSpace=wrap;html=1;dashed=1;" vertex="1" parent="1">
          <mxGeometry x="620" y="720.01" width="70" height="35" as="geometry" />
        </mxCell>
        <mxCell id="6m4tc3KTcgK31adG3Cmp-47" value="Processor" style="text;html=1;align=center;verticalAlign=middle;resizable=0;points=[];autosize=1;strokeColor=none;fillColor=none;fontStyle=0;fontSize=16;" vertex="1" parent="1">
          <mxGeometry x="562.5" y="630.01" width="100" height="30" as="geometry" />
        </mxCell>
      </root>
    </mxGraphModel>
  </diagram>
</mxfile>
